<?xml version="1.0" encoding="UTF-8"?>
<svg width="139px" height="140px" viewBox="0 0 139 140" version="1.1" xmlns="http://www.w3.org/2000/svg" xmlns:xlink="http://www.w3.org/1999/xlink">
    <!-- Generator: Sketch 61 (89581) - https://sketch.com -->
    <title>Elements/Logos/Bayer Logo</title>
    <desc>Created with Sketch.</desc>
    <defs>
        <polygon id="path-1" points="0.136308099 0.262490637 138.737907 0.262490637 138.737907 130.725145 0.136308099 130.725145"></polygon>
    </defs>
    <g id="Elements/Logos/Bayer-Logo" stroke="none" stroke-width="1" fill="none" fill-rule="evenodd">
        <g id="Bayer-Logo-Copy">
            <path d="M78.2564672,23.1017645 C79.3320578,24.1491917 80,25.6122954 80,27.2328523 C80,30.4119537 77.4198428,32.9951553 74.2386346,33 L61,33 L61,14 L74.020996,14.0009689 C77.0766621,14.0058137 79.55212,16.4858228 79.55212,19.5413841 C79.55212,20.8964506 79.0640084,22.1386353 78.2564672,23.1017645 L78.2564672,23.1017645 Z M65.5263024,28.9280177 L73.6773305,28.9280177 C74.6743967,28.9280177 75.4814531,28.1179815 75.4814531,27.1165791 C75.4814531,26.1180835 74.6748814,25.3080473 73.6778152,25.3080473 L65.5263024,25.3080473 L65.5263024,28.9280177 Z M65.5263024,21.2394564 L73.4427267,21.2394564 C74.3161896,21.2394564 75.0282412,20.5297057 75.0282412,19.6557193 C75.0282412,18.7846397 74.3161896,18.0724667 73.4427267,18.0724667 L65.5263024,18.0724667 L65.5263024,21.2394564 Z" id="Fill-1" fill="#10384F"></path>
            <path d="M69.9995031,41.8611076 L66.5777465,48.7631049 L73.4207628,48.7631049 L69.9995031,41.8611076 Z M82,56 L77.0189242,56 L75.4506605,52.8322832 L64.5483457,52.8322832 L62.9780943,56 L58,56 L67.7400306,37 L72.256491,37 L82,56 Z" id="Fill-3" fill="#10384F"></path>
            <polygon id="Fill-5" fill="#10384F" points="76.5092161 60 82 60 72.2824905 72.3704025 72.2824905 79 67.7170207 79 67.7170207 72.3704025 58 60 63.4902951 60 70.0007332 68.6519155"></polygon>
            <polygon id="Fill-7" fill="#10384F" points="102 60 102 64.0722593 88.7373495 64.0722593 88.7373495 67.2392491 101.525555 67.2377952 101.525555 71.3076315 88.7373495 71.3076315 88.7373495 74.9282253 102 74.9282253 102 79 84 79 84 60"></polygon>
            <path d="M118.227763,64.0722593 L111.578106,64.0722593 L111.578106,67.6909147 L118.227763,67.6909147 C119.234113,67.6846146 120.046745,66.8752997 120.046745,65.8823139 C120.046745,64.8869051 119.234113,64.0780748 118.227763,64.0722593 L118.227763,64.0722593 Z M115.012545,71.7617201 L111.578106,71.7617201 L111.578106,79 L107,79 L107,60 L118.693666,60 C121.97264,60.0106616 124.629265,62.6421466 124.629265,65.8866755 C124.629265,68.564684 122.836276,70.8210733 120.356693,71.5320104 L126,79 L120.505291,79 L115.012545,71.7617201 Z" id="Fill-9" fill="#10384F"></path>
            <path d="M48,64.860251 L44.5769661,71.7617201 L51.4205491,71.7617201 L48,64.860251 Z M60,79 L55.0195055,79 L53.4516089,75.8330103 L42.5488881,75.8330103 L40.9785066,79 L36,79 L45.7408374,60 L50.2571748,60 L60,79 Z" id="Fill-11" fill="#10384F"></path>
            <path d="M31.2558045,69.099847 C32.3324744,70.1472208 33,71.6112188 33,73.2307241 C33,76.4111168 30.4200643,78.9941866 27.2395009,79 L14,79 L14,60 L27.0218401,60 C30.0783028,60.0062978 32.5535286,62.4847272 32.5535286,65.5396481 C32.5535286,66.8956145 32.0648824,68.1372514 31.2558045,69.099847 L31.2558045,69.099847 Z M18.5267643,74.9262876 L26.6762004,74.9262876 C27.6753074,74.9262876 28.4814768,74.1158083 28.4814768,73.1144569 C28.4814768,72.1164967 27.6767617,71.3055329 26.67717,71.3055329 L18.5267643,71.3055329 L18.5267643,74.9262876 Z M18.5267643,67.2376339 L26.4425422,67.2376339 C27.3170638,67.2376339 28.0282186,66.5279194 28.0282186,65.6549465 C28.0282186,64.7829424 27.3170638,64.0717746 26.4425422,64.0717746 L18.5267643,64.0712902 L18.5267643,67.2376339 Z" id="Fill-13" fill="#10384F"></path>
            <polygon id="Fill-15" fill="#10384F" points="79 83 79 87.0730556 65.7356937 87.0730556 65.7356937 90.2402877 78.5245532 90.2388338 78.5245532 94.3089815 65.7356937 94.3089815 65.7356937 97.9298523 79 97.9298523 79 102 61 102 61 83"></polygon>
            <path d="M61,126 L61,107 L73.9469595,107 C77.2454976,107.021808 79.9102338,109.649483 79.9102338,112.889249 C79.9102338,115.353118 78.3682463,117.465145 76.1781199,118.344267 L82,126 L76.4599195,126 L70.9208277,118.763474 L65.6145914,118.763474 L65.6145914,126 L61,126 Z M75.2981143,112.885372 C75.2981143,111.888968 74.4808955,111.08351 73.468889,111.073817 L65.6145914,111.073817 L65.6145914,114.690626 L73.468889,114.690626 C74.4818843,114.681418 75.2981143,113.874021 75.2981143,112.885372 L75.2981143,112.885372 Z" id="Fill-17" fill="#10384F"></path>
            <g id="Group-21">
                <mask id="mask-2" fill="white">
                    <use xlink:href="#path-1"></use>
                </mask>
                <g id="Clip-20"></g>
                <path d="M138.601354,65.4935236 C136.381269,29.0951491 106.236379,0.262392509 69.3685863,0.262392509 C32.5012835,0.262392509 2.35639261,29.0951491 0.136308099,65.4935236 C0.225385563,66.9531678 0.356065141,68.4015273 0.533730634,69.8351678 C2.03189613,81.9421191 6.63602641,93.0820255 13.5199525,102.43307 C26.1523116,119.592599 46.462463,130.725145 69.3685863,130.725145 C37.3026567,130.725145 10.9606884,105.69973 8.74843486,74.1100854 C8.64907923,72.6862577 8.59475176,71.2506547 8.59475176,69.8013139 C8.59475176,68.3529543 8.64907923,66.9168607 8.74843486,65.4935236 C10.9606884,33.9033888 37.3026567,8.87846367 69.3685863,8.87846367 C92.2796039,8.87846367 112.592202,20.0154262 125.223093,37.1818232 C132.113871,46.5475873 136.714576,57.7081004 138.203931,69.8351678 C138.377681,71.2477109 138.513255,72.6715386 138.601354,74.1100854 C138.688474,72.6842951 138.737907,71.2486921 138.737907,69.8013139 C138.737907,68.3544262 138.688474,66.9188232 138.601354,65.4935236" id="Fill-19" fill="#89D329" mask="url(#mask-2)"></path>
            </g>
            <path d="M0.136945329,75.0002445 C2.36341133,111.269786 32.5949517,140 69.5687181,140 C106.541994,140 136.773534,111.269786 139,75.0002445 C138.910666,73.5457667 138.779611,72.1020447 138.601435,70.6739676 C137.098963,58.609869 132.481599,47.5093925 125.577885,38.1914458 C112.909215,21.0921652 92.5406835,10 69.5687181,10 C101.726819,10 128.144506,34.936349 130.363609,66.4141811 C130.46325,67.8334581 130.517243,69.2639797 130.517243,70.7077017 C130.517243,72.1509347 130.462759,73.5814564 130.363118,75.0002445 C128.144506,106.479054 101.726819,131.414914 69.5687181,131.414914 C46.5918442,131.414914 26.2208584,120.316882 13.5536608,103.211246 C6.64307558,93.8791213 2.02914692,82.7576221 0.53551023,70.6739676 C0.361260797,69.2659353 0.225297155,67.8471473 0.136945329,66.4141811 C0.0495751909,67.8349248 0,69.2654464 0,70.7077017 C0,72.1489791 0.0495751909,73.5795008 0.136945329,75.0002445" id="Fill-22" fill="#00BCFF"></path>
        </g>
    </g>
</svg>